Coordinates
version=1
nRows=11
nColumns=36
inDegrees=yes

Units are S.I. units (second, meters, Newtons, ...)
If the header above contains a line with 'inDegrees', this indicates whether rotational values are in degrees (yes) or radians (no).

endheader
time	pelvis_tilt	pelvis_list	pelvis_rotation	pelvis_tx	pelvis_ty	pelvis_tz	hip_flexion_r	hip_adduction_r	hip_rotation_r	knee_angle_r	knee_angle_r_beta	ankle_angle_r	subtalar_angle_r	mtp_angle_r	hip_flexion_l	hip_adduction_l	hip_rotation_l	knee_angle_l	knee_angle_l_beta	ankle_angle_l	subtalar_angle_l	mtp_angle_l	lumbar_extension	lumbar_bending	lumbar_rotation	arm_flex_r	arm_add_r	arm_rot_r	elbow_flex_r	pro_sup_r	arm_flex_l	arm_add_l	arm_rot_l	elbow_flex_l	pro_sup_l
      5.33333330	     14.64858818	     -1.09129054	      6.42416172	     -0.08786904	      0.76443235	      0.06980633	     29.91334441	    -11.98592741	     -5.05550697	      8.83210706	      0.15414935	     -0.82232652	      6.57027689	     -7.49999987	     20.32613508	      6.45512258	      2.42231648	     72.99279973	      1.27396469	     11.01950005	    -33.51665633	     -7.49999987	    -35.10518441	     -0.39049119	     -4.36292415	     95.47300050	      6.70936163	     63.41122885	    117.73448204	    108.84479603	     87.56911944	     14.38085233	     59.48303845	    139.81091460	     94.40359874
      5.35000000	     14.88917543	     -1.33515108	      6.74696194	     -0.08674675	      0.75608242	      0.06880392	     29.99305887	    -11.83459988	     -4.78731224	      8.14222644	      0.14210866	     -0.79223110	      6.82086393	     -7.49999987	     21.04468112	      6.37539085	      2.52539340	     75.18800390	      1.31227823	      9.52658236	    -33.79884413	     -7.49999987	    -35.91345057	     -0.06683266	     -4.67731825	     95.77612568	      7.08976438	     63.97338562	    117.90259851	    108.79091228	     87.51077759	     14.12396343	     59.28527017	    140.03172851	     94.65519263
      5.36666670	     15.02714592	     -1.60194951	      6.77370038	     -0.08371795	      0.74853467	      0.06958441	     30.11297829	    -11.55028986	     -4.69303037	      6.95004990	      0.12130125	     -1.09292728	      7.38721623	     -7.49999987	     21.18161835	      6.18010798	      2.51335977	     77.42317919	      1.35128939	      8.38631377	    -33.94215981	     -7.49999987	    -36.75846488	      0.10424061	     -4.45984649	     96.23797247	      7.26510002	     64.36717582	    117.97990493	    108.72191555	     87.81469027	     14.60021095	     59.75093853	    140.43125242	     94.77315046
      5.38333330	     15.19339041	     -1.98341021	      7.25354871	     -0.08430570	      0.74349529	      0.06849372	     29.70399715	    -11.31021453	     -4.75619220	      6.25825027	      0.10922707	     -0.39961956	      7.49264749	     -7.49999987	     21.86374950	      6.09701142	      2.96186635	     79.39048508	      1.38562536	      5.95559158	    -34.03767484	     -7.49999987	    -37.86090726	      0.69573000	     -4.03678775	     97.14794463	      6.98208852	     65.11773421	    118.58204771	    108.49824043	     88.19579692	     15.09231056	     60.27807945	    140.88518276	     97.34400164
      5.40000000	     15.09827596	     -1.55711373	      7.39318785	     -0.08552612	      0.73568522	      0.06793670	     29.69839967	    -11.80392674	     -4.53280864	      4.86677634	      0.08494127	     -0.88013032	      8.04065895	     -7.49999987	     22.51809656	      6.99876377	      3.02389693	     80.73013978	      1.40900674	      7.78684811	    -33.90197928	     -7.49999987	    -38.74521541	      0.17127982	     -4.27678120	     97.84032190	      6.74527824	     65.46212059	    118.64348514	    108.47740396	     88.85346521	     15.58317654	     61.01814674	    141.14341188	     97.44349824
      5.41666670	     15.04778386	     -1.48519759	      7.58691332	     -0.08373073	      0.72612439	      0.06846346	     29.75219135	    -12.02646653	     -4.08986362	      4.49059214	      0.07837562	     -0.90021709	      8.00499286	     -7.49999987	     23.46368142	      7.28177420	      3.20047851	     82.21104262	      1.43485338	      8.62845210	    -34.01532793	     -7.49999987	    -39.47802225	      0.19968366	     -4.39743655	     98.54445101	      6.35051993	     65.34356763	    118.43235537	    108.46517799	     89.24767092	     15.37672618	     60.95660134	    140.97715020	     97.45980280
      5.43333330	     14.94237399	     -1.43364694	      7.41777761	     -0.08320628	      0.71848046	      0.06846882	     29.83075758	    -12.02678796	     -4.00967547	      4.27102578	      0.07454346	     -0.99989381	      7.62626680	     -7.49999987	     24.93647456	      7.30700932	      2.68569623	     84.14095521	      1.46853670	      8.65559817	    -34.05218172	     -7.49999987	    -40.12901575	      0.07758893	     -4.45893181	     99.16576669	      6.43773430	     65.34955953	    118.44498446	    108.45459815	     89.67283728	     15.23677760	     60.76228159	    141.07096631	     97.46497086
      5.45000000	     14.62865206	     -1.24113314	      7.45374224	     -0.08265009	      0.71296516	      0.06777512	     30.02252591	    -12.20712195	     -3.52675938	      3.84207668	      0.06705689	     -1.50042865	      7.00198649	     -7.49999987	     26.49295536	      7.74060897	      2.50596123	     86.03319474	      1.50156251	      9.20249291	    -34.04645040	     -7.49999987	    -40.21679511	      0.02286944	     -4.93803318	     99.35696088	      6.72739244	     65.47767334	    118.56412248	    108.51840105	     89.71915112	     14.83028924	     60.44868366	    141.40144732	     96.82011820
      5.46666670	     14.45320532	     -1.10581597	      7.41048596	     -0.08377716	      0.70658347	      0.06728732	     29.97343172	    -12.30292707	     -3.56857817	      3.95645753	      0.06905321	     -1.53576540	      6.85616684	     -7.49999987	     27.50051132	      7.99640845	      2.23792354	     87.42444218	      1.52584436	      8.51461663	    -34.01505648	     -7.49999987	    -40.65905491	      0.09475279	     -5.42977892	     99.75023820	      7.34100971	     65.51591195	    119.21297306	    108.50581431	     90.06280156	     14.04626297	     60.15396336	    141.04276074	     96.82988085
      5.48333330	     14.35545214	     -0.66076548	      7.74855064	     -0.08455933	      0.69901787	      0.06757021	     29.67805001	    -12.88940393	     -3.45187998	      3.65941741	      0.06386888	     -1.72443013	      6.60063312	     -7.49999987	     28.98944173	      8.58891389	      1.98332132	     88.75445210	      1.54905742	      8.24194817	    -34.07126249	     -7.49999987	    -41.08380677	     -0.08643310	     -5.88491971	     99.96765148	      7.38763316	     65.64577153	    119.55042434	    106.11231287	     90.35837943	     13.66338389	     59.67060640	    140.81289049	     95.20068854
      5.50000000	     14.10707629	     -0.23021589	      8.17167025	     -0.08369466	      0.69383541	      0.06747601	     29.47129377	    -13.57751494	     -3.44343037	      3.26432684	      0.05697325	     -1.94318470	      6.55516443	     -7.49999987	     30.22649157	      9.24653894	      1.94994476	     89.73980918	      1.56625514	     11.57805734	    -34.00913053	     -7.49999987	    -41.54834992	     -0.12271045	     -6.40509348	    100.21269338	      7.28723577	     65.53795312	    119.37424197	    106.40532118	     90.76791570	     12.79476339	     59.09732266	    139.69629313	     95.25184840
